<svg xmlns="http://www.w3.org/2000/svg" viewBox="0 0 100 100" width="100" height="100">
  <defs>
    <linearGradient id="g5" x1="0%" y1="0%" x2="100%" y2="100%">
      <stop offset="0%" stop-color="#10B981"/>
      <stop offset="100%" stop-color="#047857"/>
    </linearGradient>
  </defs>
  <rect width="100" height="100" rx="20" fill="url(#g5)"/>
  <!-- Shield representation -->
  <path d="M50,25 C65,25 70,30 70,48 C70,65 58,74 50,78 C42,74 30,65 30,48 C30,30 35,25 50,25 Z" fill="#FFFFFF"/>
  <!-- Inner Details -->
  <path d="M50,30 C60,30 65,34 65,48 C65,60 56,68 50,72 C44,68 35,60 35,48 C35,34 40,30 50,30 Z" fill="#047857" opacity="0.8"/>
  <polygon points="50,36 54,46 64,46 56,52 59,62 50,56 41,62 44,52 36,46 46,46" fill="#FFFFFF"/>
</svg>
